nColumns=19
nRows=82
DataType=double
version=3
OpenSimVersion=4.1
endheader
time	ground_force_1_vx	ground_force_1_vy	ground_force_1_vz	ground_force_1_px	ground_force_1_py	ground_force_1_pz	ground_force_1_mx	ground_force_1_my	ground_force_1_mz	ground_force_2_vx	ground_force_2_vy	ground_force_2_vz	ground_force_2_px	ground_force_2_py	ground_force_2_pz	ground_force_2_mx	ground_force_2_my	ground_force_2_mz
0	-51.8795	382.284	39.3812	0.102882	0.006	-0.275083	0	0.804656	0	0	0	0	0.658523	0	-0.433722	0	0	0
0.01	-58.9471	407.574	32.8668	0.107812	0.006	-0.273426	0	0.361742	0	0	0	0	0.658523	0	-0.433722	0	0	0
0.02	-66.5394	436.44	25.5945	0.113871	0.006	-0.271406	0	-0.062274	0	0	0	0	0.658523	0	-0.433722	0	0	0
0.03	-74.4457	468.566	17.7896	0.120033	0.006	-0.269384	0	-0.439181	0	0	0	0	0.658523	0	-0.433722	0	0	0
0.04	-82.4459	503.623	9.74173	0.126139	0.006	-0.267423	0	-0.745358	0	0	0	0	0.658523	0	-0.433722	0	0	0
0.05	-90.3254	541.324	1.72473	0.132064	0.006	-0.265573	0	-0.968434	0	0	0	0	0.658523	0	-0.433722	0	0	0
0.06	-97.9024	581.368	-6.05539	0.137719	0.006	-0.26386	0	-1.10893	0	0	0	0	0.658523	0	-0.433722	0	0	0
0.07	-105.017	623.332	-13.4551	0.143042	0.006	-0.262295	0	-1.17528	0	0	0	0	0.658523	0	-0.433722	0	0	0
0.08	-111.497	666.58	-20.354	0.147999	0.006	-0.26088	0	-1.17711	0	0	0	0	0.658523	0	-0.433722	0	0	0
0.09	-117.159	710.234	-26.6437	0.152578	0.006	-0.259606	0	-1.12353	0	0	0	0	0.658523	0	-0.433722	0	0	0
0.1	-121.835	753.236	-32.251	0.156789	0.006	-0.258461	0	-1.02538	0	0	0	0	0.658523	0	-0.433722	0	0	0
0.11	-125.385	794.432	-37.1524	0.160661	0.006	-0.257423	0	-0.894787	0	0	0	0	0.658523	0	-0.433722	0	0	0
0.12	-127.722	832.674	-41.3628	0.164235	0.006	-0.25647	0	-0.743239	0	0	0	0	0.658523	0	-0.433722	0	0	0
0.13	-128.826	866.92	-44.9232	0.167561	0.006	-0.25558	0	-0.581732	0	0	0	0	0.658523	0	-0.433722	0	0	0
0.14	-128.73	896.337	-47.886	0.170694	0.006	-0.254732	0	-0.42078	0	0	0	0	0.658523	0	-0.433722	0	0	0
0.15	-127.509	920.365	-50.3001	0.173684	0.006	-0.253906	0	-0.270047	0	0	0	0	0.658523	0	-0.433722	0	0	0
0.16	-125.26	938.719	-52.2099	0.176579	0.006	-0.253089	0	-0.138212	0	0	0	0	0.658523	0	-0.433722	0	0	0
0.17	-122.099	951.35	-53.6552	0.179415	0.006	-0.252271	0	-0.032343	0	0	0	0	0.658523	0	-0.433722	0	0	0
0.18	-118.146	958.414	-54.6726	0.182223	0.006	-0.251443	0	0.042815	0	0	0	0	0.658523	0	-0.433722	0	0	0
0.19	-113.528	960.233	-55.2952	0.185028	0.006	-0.250604	0	0.085192	0	0	0	0	0.658523	0	-0.433722	0	0	0
0.2	-108.366	957.257	-55.5549	0.187842	0.006	-0.249752	0	0.095409	0	0	0	0	0.658523	0	-0.433722	0	0	0
0.21	-102.776	950.031	-55.4845	0.190676	0.006	-0.24889	0	0.076601	0	0	0	0	0.658523	0	-0.433722	0	0	0
0.22	-96.8706	939.161	-55.1211	0.193532	0.006	-0.248022	0	0.033914	0	0	0	0	0.658523	0	-0.433722	0	0	0
0.23	-90.7534	925.307	-54.507	0.196412	0.006	-0.24715	0	-0.026418	0	0	0	0	0.658523	0	-0.433722	0	0	0
0.24	-84.5161	909.165	-53.6884	0.199311	0.006	-0.24628	0	-0.098155	0	0	0	0	0.658523	0	-0.433722	0	0	0
0.25	-78.2359	891.455	-52.7135	0.202225	0.006	-0.245417	0	-0.176056	0	0	0	0	0.658523	0	-0.433722	0	0	0
0.26	-71.9789	872.891	-51.631	0.205146	0.006	-0.244564	0	-0.256399	0	0	0	0	0.658523	0	-0.433722	0	0	0
0.27	-65.8038	854.147	-50.4877	0.208065	0.006	-0.243729	0	-0.337024	0	0	0	0	0.658523	0	-0.433722	0	0	0
0.28	-59.7648	835.831	-49.3293	0.210973	0.006	-0.242917	0	-0.417018	0	0	0	0	0.658523	0	-0.433722	0	0	0
0.29	-53.9096	818.467	-48.2004	0.21386	0.006	-0.242135	0	-0.496246	0	0	0	0	0.658523	0	-0.433722	0	0	0
0.3	-48.2779	802.494	-47.1471	0.21672	0.006	-0.241389	0	-0.574778	0	0	0	0	0.658523	0	-0.433722	0	0	0
0.31	-42.9012	788.27	-46.2182	0.219547	0.006	-0.240686	0	-0.652505	0	0	0	0	0.658523	0	-0.433722	0	0	0
0.32	-37.7995	776.078	-45.467	0.222337	0.006	-0.240029	0	-0.729065	0	0	0	0	0.658523	0	-0.433722	0	0	0
0.33	-32.9799	766.133	-44.9493	0.225088	0.006	-0.239423	0	-0.804188	0	0	0	0	0.658523	0	-0.433722	0	0	0
0.34	-28.4361	758.591	-44.7172	0.227798	0.006	-0.238872	0	-0.878114	0	0	0	0	0.658523	0	-0.433722	0	0	0
0.35	-24.1486	753.559	-44.8127	0.230465	0.006	-0.238378	0	-0.951911	0	0	0	0	0.658523	0	-0.433722	0	0	0
0.36	-20.0828	751.112	-45.2635	0.233084	0.006	-0.237944	0	-1.02749	0	0	0	0	0.658523	0	-0.433722	0	0	0
0.37	-16.1894	751.292	-46.0831	0.235653	0.006	-0.237572	0	-1.10749	0	0	0	0	0.658523	0	-0.433722	0	0	0
0.38	-12.4079	754.119	-47.2737	0.238166	0.006	-0.237263	0	-1.1951	0	0	0	0	0.658523	0	-0.433722	0	0	0
0.39	-8.6703	759.581	-48.8301	0.240621	0.006	-0.237014	0	-1.29377	0	0	0	0	0.658523	0	-0.433722	0	0	0
0.4	-4.90429	767.637	-50.7415	0.243016	0.006	-0.236822	0	-1.40674	0	0	0	0	0.658523	0	-0.433722	0	0	0
0.41	-1.03632	778.203	-52.9912	0.245352	0.006	-0.236681	0	-1.5368	0	0	0	0	0.658523	0	-0.433722	0	0	0
0.42	3.00468	791.143	-55.5533	0.247634	0.006	-0.236584	0	-1.68626	0	0	0	0	0.658523	0	-0.433722	0	0	0
0.43	7.28276	806.249	-58.3885	0.249871	0.006	-0.236523	0	-1.85698	0	0	0	0	0.658523	0	-0.433722	0	0	0
0.44	11.8504	823.239	-61.4421	0.252075	0.006	-0.236492	0	-2.05052	0	0	0	0	0.658523	0	-0.433722	0	0	0
0.45	16.745	841.756	-64.6458	0.254256	0.006	-0.236485	0	-2.26802	0	0	0	0	0.658523	0	-0.433722	0	0	0
0.46	21.9895	861.376	-67.9225	0.256427	0.006	-0.236498	0	-2.5096	0	0	0	0	0.658523	0	-0.433722	0	0	0
0.47	27.5944	881.626	-71.1893	0.258596	0.006	-0.236531	0	-2.77381	0	0	0	0	0.658523	0	-0.433722	0	0	0
0.48	33.5602	902.004	-74.3599	0.260769	0.006	-0.236583	0	-3.05747	0	0	0	0	0.658523	0	-0.433722	0	0	0
0.49	39.8798	921.997	-77.3465	0.262948	0.006	-0.236656	0	-3.35579	0	0	0	0	0.658523	0	-0.433722	0	0	0
0.5	46.5401	941.1	-80.062	0.265131	0.006	-0.236754	0	-3.6627	0	0	0	0	0.658523	0	-0.433722	0	0	0
0.51	53.519	958.829	-82.4234	0.26731	0.006	-0.236881	0	-3.97125	0	0	0	0	0.658523	0	-0.433722	0	0	0
0.52	60.783	974.722	-84.3546	0.269476	0.006	-0.237039	0	-4.27397	0	0	0	0	0.658523	0	-0.433722	0	0	0
0.53	68.2863	988.329	-85.7887	0.271617	0.006	-0.237231	0	-4.56315	0	0	0	0	0.658523	0	-0.433722	0	0	0
0.54	75.9698	999.191	-86.6714	0.273722	0.006	-0.237459	0	-4.83113	0	0	0	0	0.658523	0	-0.433722	0	0	0
0.55	83.7585	1006.83	-86.9649	0.275781	0.006	-0.237723	0	-5.07037	0	0	0	0	0.658523	0	-0.433722	0	0	0
0.56	91.5608	1010.75	-86.6504	0.277784	0.006	-0.238021	0	-5.27358	0	0	0	0	0.658523	0	-0.433722	0	0	0
0.57	99.2646	1010.44	-85.7247	0.279728	0.006	-0.238352	0	-5.43389	0	1.7277	28.0814	-5.9116	0.675719	0.006	-0.43955	0	0.34542	0
0.58	106.732	1005.37	-84.193	0.281613	0.006	-0.238711	0	-5.54555	0	-0.541163	49.7366	-5.85611	0.715197	0.006	-0.452689	0	0.473972	0
0.59	113.794	995.039	-82.0617	0.283442	0.006	-0.239095	0	-5.6048	0	-3.85677	76.719	-5.47003	0.735009	0.006	-0.459021	0	0.515543	0
0.6	120.253	978.985	-79.3354	0.285223	0.006	-0.239502	0	-5.61029	0	-8.41699	109.274	-4.64362	0.747338	0.006	-0.462777	0	0.519504	0
0.61	125.885	956.807	-76.0185	0.286966	0.006	-0.23993	0	-5.56285	0	-14.3818	147.389	-3.25517	0.756105	0.006	-0.465318	0	0.502273	0
0.62	130.452	928.219	-72.1254	0.288684	0.006	-0.240375	0	-5.46471	0	-21.7859	190.771	-1.1756	0.762949	0.006	-0.467218	0	0.472541	0
0.63	133.721	893.084	-67.6923	0.29039	0.006	-0.240835	0	-5.31863	0	-30.4871	238.861	1.71151	0.768668	0.006	-0.468762	0	0.437059	0
0.64	135.475	851.459	-62.786	0.2921	0.006	-0.241305	0	-5.1272	0	-40.1935	290.886	5.48477	0.773677	0.006	-0.470095	0	0.401246	0
0.65	135.537	803.623	-57.5053	0.293829	0.006	-0.241778	0	-4.89271	0	-50.5363	345.854	10.1638	0.778208	0.006	-0.471292	0	0.368146	0
0.66	133.776	750.094	-51.9758	0.295594	0.006	-0.242245	0	-4.61766	0	-61.1232	402.561	15.6894	0.782387	0.006	-0.472391	0	0.337247	0
0.67	130.119	691.63	-46.3393	0.297415	0.006	-0.242696	0	-4.30548	0	-71.5425	459.65	21.9011	0.786285	0.006	-0.473407	0	0.303569	0
0.68	124.567	629.222	-40.7406	0.299313	0.006	-0.243123	0	-3.9612	0	-81.3562	515.7	28.5282	0.789933	0.006	-0.474343	0	0.257978	0
0.69	117.201	564.067	-35.3158	0.301316	0.006	-0.243516	0	-3.59156	0	-90.1276	569.312	35.2196	0.793343	0.006	-0.475197	0	0.19001	0
0.7	108.19	497.532	-30.1823	0.303457	0.006	-0.243869	0	-3.20486	0	-97.4765	619.197	41.6141	0.79653	0.006	-0.475969	0	0.092849	0
0.71	97.7975	431.088	-25.4327	0.305783	0.006	-0.244177	0	-2.8104	0	-103.142	664.305	47.4198	0.79952	0.006	-0.476668	0	-0.033187	0
0.72	86.3837	366.24	-21.132	0.308349	0.006	-0.244437	0	-2.41775	0	-107.022	703.931	52.4487	0.802351	0.006	-0.477305	0	-0.182063	0
0.73	74.3943	304.42	-17.3162	0.311232	0.006	-0.244649	0	-2.036	0	-109.156	737.765	56.601	0.805073	0.006	-0.477895	0	-0.346562	0
0.74	62.3233	246.888	-13.9925	0.314546	0.006	-0.244812	0	-1.67315	0	-109.693	765.857	59.8411	0.807734	0.006	-0.478451	0	-0.520625	0
0.75	50.6535	194.628	-11.1421	0.318469	0.006	-0.244924	0	-1.33549	0	-108.853	788.546	62.1875	0.810382	0.006	-0.478985	0	-0.699211	0
0.76	39.7918	148.305	-8.72647	0.32332	0.006	-0.244982	0	-1.02743	0	-106.895	806.372	63.7067	0.81306	0.006	-0.479505	0	-0.878208	0
0.77	30.0289	108.263	-6.69567	0.329713	0.006	-0.244971	0	-0.751369	0	-104.083	819.984	64.5024	0.815806	0.006	-0.480019	0	-1.05433	0
0.78	21.5352	74.5492	-4.99611	0.338962	0.006	-0.244854	0	-0.507511	0	-100.666	830.058	64.7019	0.818653	0.006	-0.480535	0	-1.22437	0
0.79	14.3789	46.9479	-3.57748	0.354402	0.006	-0.24453	0	-0.292664	0	-96.8676	837.242	64.4387	0.821628	0.006	-0.481062	0	-1.38469	0
0.8	8.54831	25.0335	-2.3979	0.387577	0.006	-0.24362	0	-0.094627	0	-92.8818	842.131	63.8356	0.824756	0.006	-0.481606	0	-1.53123	0
0.81	0	0	0	0.417439	0	-0.244486	0	0	0	-88.8651	845.249	62.9912	0.828056	0.006	-0.482171	0	-1.65935	0
